/* XPM */
static char *_264_13a3f969673eb5087b22ba91e4a9f03a30ecd3b637a4a91af68f6ee3a2a1d9be[] = {
/* columns rows colors chars-per-pixel */
"32 32 9 1 ",
"  c #2A253E",
". c #2D293E",
"X c #14A0CD",
"o c #6CBDE1",
"O c #41D7D7",
"+ c #99C9DE",
"@ c #C4D9E1",
"# c #C8E1EB",
"$ c white",
/* pixels */
" ..........          ...........",
" ..........          ...........",
"...........          ...........",
"...........         ............",
"...........         ...++o......",
"...........         ..++Xoo.....",
"...........         .@ooXooX....",
"...........     @@@@@#XooXXX....",
"...........    @###@##XoXXXX....",
"...........   @####@###XXXX.....",
"...........  @##$$##@####@......",
"........... @oo$#####@##@.......",
"...........@+ooooo####@@@.......",
"..........@++oooooo#####@.......",
".........@+++ooooooo####@.......",
"........@++#++oooooo####@.......",
".......@++#+++ooooooo##@........",
"......@@+#++++XXXoooo#@.........",
".....@+@+++++XOOOXooo@ .........",
"....@@+@++++XOXXXOXo@   ........",
"...@o@++@++XOXXOXXO@    ........",
"...@o@++@++XOXXOOX@     ........",
"...@o+@++@+XOXOXX@      ........",
"...@oo@+++@@XOXX@        .......",
"....@o+@+++++XO@         .......",
"....@oo+@@++oo@          .......",
".....@ooo+@@@@           .......",
"......@@oooo@             ..... ",
"........@@@@              ..... ",
"...........               ..... ",
"...........               ..... ",
"...........                ...  "
};
