/* XPM */
static char *_4003_f76cc786270d23944c907156494590d53e700656d81e294f8c271ecfcc647e8b[] = {
/* columns rows colors chars-per-pixel */
"32 32 8 1 ",
"  c #55647D",
". c #687488",
"X c #6D7B93",
"o c #758193",
"O c #7891A5",
"+ c #9AADBB",
"@ c #A5BECD",
"# c None",
/* pixels */
"################################",
"##########################@#####",
"#########################@OO####",
"########################@OO O###",
"#######################@OO O ###",
"######################@OO O  ###",
"#####################@OO O   ###",
"####################@OO O O ####",
"###################@OO O O  ####",
"##################@OO O O  #####",
"################@@OO O O  ######",
"###############@OOO O O  #######",
"########@@@###@OOO OX+  ########",
"#######@OOO@#@OOO +XO  #########",
"######@OOOOO@ OOX+ OO ##########",
"#####@OOOOOOO+ +O OO  ##########",
"####@OOOOOO++OO OOO  ###########",
"###@OOOOO++OOOO+ O  ############",
"##@OOOO++OOOO++++  #############",
"##OOO++  OO++++++O##############",
"##O++OO#  +++++OOOO#############",
"## +OOO+#  ++OOOOOO ############",
"##ooO++++#  OOOOOOO ############",
"###  ++++O# OOOOOO  ############",
"####o.+OOOO#OOOOO  #############",
"#####ooOOOOOOOOO  ##############",
"######o OOOOOOO  ###############",
"#######  OOOOO  ################",
"########  OOO  #################",
"#########     ##################",
"##########   ###################",
"################################"
};
