/* XPM */
static char *_2238_63b6bcc0961592f309e3c466aa8899eaac95a02b73eccd43c8de8d5c481de95b[] = {
/* columns rows colors chars-per-pixel */
"32 32 6 1 ",
"  c black",
". c #2A253E",
"X c #2D293E",
"o c #983420",
"O c #CC6C42",
"+ c #EBA26D",
/* pixels */
".XXXXXXXXXX..........XXXXXXXXXXX",
".XXXXXXXXXX..........XXXXXXXXXXX",
"XXXXXXXXXXX... . . . XXXXXXXXXXX",
"XXXXXXXXXX              XXXXXXXX",
"XXXXXXXXX OOOOOOOOOOOOOO XXXXXXX",
"XXXXXXX   OOOOOOOOOOOOOO   XXXXX",
"XXXXXX +++OOOOOOOOOOOOOO oo XXXX",
"XXXXXX +++OOOOO++++O++++ oo XXXX",
"XXXXXXX   OOOOO+   O   +   XXXXX",
"XXXXXXXXX OOOOO++++O++++ XXXXXXX",
"XXXXXXXXX OOOOOOOOOOOOOO XXXXXXX",
"XXXXXXXXX OOOOOO          XXXXXX",
"XXXXXXXXX OOOOOOOOOOOOOOO XXXXXX",
"XXXXXXXX  OOOOOOOOOOOOOOO XXXXXX",
"XXXXXXX OO               XXXXXXX",
"XXXXXX OOOOOOOOOOO oo .XXXXXXXXX",
"XXXXXX OOOOOOOOOOOO oo XXXXXXXXX",
"XXXXXX OOOOOOOOOOOOO oo XXXXXXXX",
"XXXXXX OOOOOOOOOOOOO oo XXXXXXXX",
"XXXXXX OOOOOOOO OOOOO oo XXXXXXX",
"XXXXXX OOOOOOOO OOOOO oo XXXXXXX",
"XXXXXX OOOOOOOO OOOOO oo XXXXXXX",
"XXXXXX OOOOOOOO  OOOOO oo XXXXXX",
"XXXXXX OOOOOOOOO OOOOO oo XXXXXX",
"XXXXXX OOOOOOOOO OOOOO oo XXXXXX",
"XXXXXX OOOOOOOO OOOOOO oo XXXXXX",
"XXXXXX OOOOOOO  OOOOOO oo XXXXXX",
"XXXXXX OOOOOO O OOOOOO oo XXXXX.",
"XXXXXX OOO    O OOOOOO oo XXXXX.",
"XXXXXXX OOOOOOO OOOOOO oo XXXXX.",
"XXXXXXXX OOOOOO OOOOO oo .XXXXX.",
"XXXXXXXX             oo ...XXX.."
};
