/* XPM */
static char *_1142_5a47ef657e88fe7848f16d6c68579890d192d5c11eddab191cb6145dbec4f0f2[] = {
/* columns rows colors chars-per-pixel */
"32 32 10 1 ",
"  c #191E3C",
". c #2A253E",
"X c #2D293E",
"o c #37415A",
"O c #55647D",
"+ c #8C2323",
"@ c #8C3C32",
"# c #B26247",
"$ c #DC9B78",
"% c #7891A5",
/* pixels */
".XXXXXXXXXX..........XXXXXXXXXXX",
".XXXXXXXXXX..........XXXXXXXXXXX",
"XXXXXXXXXXX..........XXXXXXXXXXX",
"XXXXXXXXXXX.........XXXXXXXXXXXX",
"XXXXXXXXXXX.........XXXXXXXXXXXX",
"XXXXXXXXXXX.........XXXXXXXXXXXX",
"XXXXXXXXXXX.........XXXXXXXXXXXX",
"XXXXXXXXXXX.........XXXXXX$$#XXX",
"XXXXXXXXXXX.........XXXX$$####XX",
"XXXXXXXXXXX..........X$$#####@@X",
"XXXXXXXXXXX.........$$####@@@@@X",
"XXXXXXXXXXX.....%%%%####@@@@@@@X",
"XXXXXXXXXXX...%%OOOOo#@@@@@@@@@X",
"XXXXXXXXXXX.%%OOOOoo @@@@@@@@@+X",
"XXXXXXXXXX%%OOOOoo  @@@@@+++++XX",
"XXXXXXXX%%OOOOooo @@@@#@@@+XXXXX",
"XXXXXX%%OOOOoooo @@..O.##@XXXXXX",
"XXXX%%OOOOoooooo @OOO..XXXXXXXXX",
"XX%%OOOOoooo##  o......XXXXXXXXX",
"X%OOOOoooo###@@.........XXXXXXXX",
"XO  oooooX#@@+..........XXXXXXXX",
"XO  oooXXXX.............XXXXXXXX",
"XXoooXXXXXX.............XXXXXXXX",
"XXXXXXXXXXX..............XXXXXXX",
"XXXXXXXXXXX..............XXXXXXX",
"XXXXXXXXXXX..............XXXXXXX",
"XXXXXXXXXXX..............XXXXXXX",
"XXXXXXXXXXX...............XXXXX.",
"XXXXXXXXXXX...............XXXXX.",
"XXXXXXXXXXX...............XXXXX.",
"XXXXXXXXXXX...............XXXXX.",
"XXXXXXXXXXX................XXX.."
};
