/* XPM */
static char *_2094_6e3b21f3c619eb56ce4c3debcbca892eae56acc81773964b4d09586c7ab26d8f[] = {
/* columns rows colors chars-per-pixel */
"32 32 5 1 ",
"  c #20004A",
". c #20204A",
"X c #34365C",
"o c #4A4A6A",
"O c #6A6A6A",
/* pixels */
"X .....XXX....    .XXXXXXXXXXXXX",
"X                 ..XX..XXXXX.XX",
".   XXXooo ..OOOOO..............",
"XXX   .Xoo .OooooooXooXoXXXoXXoX",
"ooXX ..XXo .oooooooooooooooXXXoo",
"ooo ..X.Xo ooooooooooooooXXXoooo",
"ooo .XX..X oooooo.ooooooXooooooo",
"ooo XXXX.. ooooooOooooXXoooooooo",
"ooo XXXX.. oXooooooooXoooooooooo",
"oX. X..... X.Xooooooo.ooooooXooo",
"..  .....  .....XXXX....X.Xo.oX.",
".          ...    . .  .  ....  ",
"                                ",
"..X.XoOOOOo...oOooX... OOOoOoOO ",
"..oooooooooooooooooo.. oooooooo ",
".XooooooooooooooooooX. Xooooooo ",
" ..Xooooooo.oooooooo.  .ooooooo ",
"   ...XXoooOooooXX..   .XoooooX ",
"                                ",
"XXXXooXXXooooooooX oooooooooXXX ",
".XXXXXXXXXXXXXXXXX XooooXXXX.. X",
" .X..XXXXXXXXXXXX. XoXXXX..X..  ",
"   ...XXXX.X.XXX.. XXXX...XX..  ",
"  ..X..XXX..XX.... .XXX. .XX..  ",
"  ..X..X....XX.... .XX.  .....  ",
"   .  ......... .. .X.     .    ",
"      ........   . .. .......   ",
"       .......   . .. ....      ",
"          . ..     .   .        ",
"                   .            ",
"                                ",
"                                "
};
