/* XPM */
static char *_7637_6edcec75f5ef112cfb427849cfd0a21e132d408c89019a29fa9f4466a83c4fce[] = {
/* columns rows colors chars-per-pixel */
"32 32 121 2 ",
"   c #4A1F3B",
".  c #4F233E",
"X  c #6B3B46",
"o  c #7C5C72",
"O  c #8D3039",
"+  c #AA3432",
"@  c #936B70",
"#  c #997175",
"$  c #BA616B",
"%  c #A2777B",
"&  c #C76D64",
"*  c #CA9379",
"=  c #C8937A",
"-  c #DC9977",
";  c #192294",
":  c #1A279D",
">  c #383B91",
",  c #3D3F92",
"<  c #1B2DA8",
"1  c #1B2EA9",
"2  c #1B2EAA",
"3  c #1C31AE",
"4  c #273DB8",
"5  c #424390",
"6  c #464790",
"7  c #6E6C87",
"8  c #787896",
"9  c #5561BF",
"0  c #5A65BB",
"q  c #5C67B9",
"w  c #5864BE",
"e  c #7F71A9",
"r  c #616AB3",
"t  c #3250D3",
"y  c #3455DA",
"u  c #375BE4",
"i  c #385CE6",
"p  c #395DE7",
"a  c #395FEA",
"s  c #3A5FEB",
"d  c #3A60EC",
"f  c #3A61ED",
"g  c #3B62EE",
"h  c #3B62EF",
"j  c #3C64F2",
"k  c #3E68F8",
"l  c #4F5EC4",
"z  c #4C5CC6",
"x  c #4559CA",
"c  c #485BC8",
"v  c #5260C1",
"b  c #5072EB",
"n  c #5273EC",
"m  c #4F75F7",
"M  c #4970F8",
"N  c #4A71F8",
"B  c #4C73F8",
"V  c #4D74F8",
"C  c #5076F7",
"Z  c #5177F7",
"A  c #5278F7",
"S  c #9C7280",
"D  c #C37C8D",
"F  c #817ED1",
"G  c #5F82F7",
"H  c #7984E8",
"J  c #838080",
"K  c #B78F8B",
"L  c #A08597",
"P  c #BB9FB7",
"I  c #BDA2B8",
"U  c #D99082",
"Y  c #DAA29A",
"T  c #EEBB9F",
"R  c #C2A4BD",
"E  c #D8A8B3",
"W  c #F2C2A8",
"Q  c #FCD4BD",
"!  c #9E98CD",
"~  c #9F96DE",
"^  c #A098C7",
"/  c #A090D1",
"(  c #ACA5D3",
")  c #8389E6",
"_  c #8C8DE3",
"`  c #888BE5",
"'  c #918FE2",
"]  c #9692E1",
"[  c #8FA1F7",
"{  c #9BA9F7",
"}  c #AFB1E8",
"|  c #A1AEF7",
" . c #C4A5C0",
".. c #D6B0D0",
"X. c #E6BFC8",
"o. c #EAC3C6",
"O. c #EBC4C6",
"+. c #ECC5C5",
"@. c #EDC6C4",
"#. c #E4C5DF",
"$. c #E5C7DE",
"%. c #F5D5D0",
"&. c #FEE2DA",
"*. c #E6C8E1",
"=. c #E9CDE1",
"-. c #EACFE2",
";. c #E8CCE4",
":. c #E9CEE5",
">. c #EACFE6",
",. c #ECD2E5",
"<. c #EED4E6",
"1. c #ECD3E8",
"2. c #F0D8E8",
"3. c #F1DAEA",
"4. c #F3DCEB",
"5. c #FBE9F6",
"6. c #FCEAF6",
"7. c #FCEBF6",
"8. c #FDEBF6",
"9. c #FDECF6",
"0. c #FFEFF6",
/* pixels */
"J J J J J J J J J J J J J J J J J J J J J J J J J J J J J J J J ",
"J J J J J J J J J J J J J J J J J J J J J J J J J J J J J J J J ",
"J J J J J J J J J J J J J J J J J J J J J J J J J J J J J J J J ",
"J J J J J J J J J J J J q t t t t r J J J J J J J J J J J J J J ",
"J J J J J J J J J J w t a Z V k k p t q J J J J J J J J J J J J ",
"J J J J J J J J J 9 d k k k k m m k k a 0 7 ; ; ; 5 J J J J J J ",
"J J J J J J J J v f k k A B k k k k [ 0.( : 3 3 3 1 , J J J J J ",
"J J J J J J J l t t t t a k k | 0.0.! ; : 3 3 3 3 3 2 > J J J J ",
"J J J J J J J J J J J 0 } 0.0.{ k p 4 ; ; : 3 3 < ; , J J J J J ",
"J J J J J J J l t t t s k k k k i e - - - S ; ; 6 J J J J J J J ",
"J J J J J J z h k k k k k k u t F ..X.@...E = J J J J J J J J J ",
"J J J J J J J l t t t t t t ^ &.0.,.X.@.$.0.%.* J J J J J J J J ",
"J J J J J J J J J J J I Y T Q &.L @ Q Q K o %.* J J J J J J J J ",
"J J J J J J J J J J J I Y T Q #   % U + O . X * J J J J J J J J ",
"J J J J J J J J J J J J P +.Q Q Q Q U + & Q W * J J J J J J J J ",
"J J J J J J J J J J J J P ..O.Q o...D + $ .... .J J J J J J J J ",
"J J J J J J J J J J J J P <.=...-.0.0.0.9.5.4. .J J J J J J J J ",
"J J J J J J J J J J J J P <.6.7.0.7.6.0.9.5.4. .J J J J J J J J ",
"J J J J J J J J J J J 0 a ] :.7.0.7.6.8.5.3.R J J J J J J J J J ",
"J J J J J J J J J J w s k ] ,.6.6.0.0.0.9.5.4. .J J J J J J J J ",
"J J J J J J J J J J w s k k ' ;.6.0.7.5.9.5.4. .J J J J J J J J ",
"J J J J J J J J J J w s k Z V _ -.7.6.0.2...R J J J J J J J J J ",
"J J J J J J J J J 9 b N k k k _ -.7.6.8.1./ 9 J J J J J J J J J ",
"J J J J J J J J J 9 d k k k k k ` *.>.#.1./ 9 J J J J J J J J J ",
"J J J J J J J J J 9 d k k k k m m ) ] H ~ d 9 J J J J J J J J J ",
"J J J J J J J J J 9 d k A B C G G C k k k k f v J J J J J J J J ",
"J J J J J J J J J 9 d k k k k m m k k k k M n v J J J J J J J J ",
"J J J J J J J J v t d k k k k k k k B A k k f v J J J J J J J J ",
"J J J J J c 8 l g k k k k Z V k k k k k k k f v J J J J J J J J ",
"J J J J x j y h k k k k k k k k k k k k k k f v J J J J J J J J ",
"J J J J J c t t t t t t t t t t t t t t t t 9 J J J J J J J J J ",
"J J J J J J J J J J J J J J J J J J J J J J J J J J J J J J J J "
};
